<svg xmlns="http://www.w3.org/2000/svg" viewBox="0 0 243.17 455.74"><defs><style>.cls-1{fill:#71210d;}</style></defs><g id="Ebene_2" data-name="Ebene 2"><g id="Ebene_1-2" data-name="Ebene 1"><rect class="cls-1" x="129.95" y="366.53" width="16.47" height="161.95" rx="0.25" transform="translate(585.69 309.32) rotate(90)"/><rect class="cls-1" x="145.39" y="352.97" width="16.47" height="131.07" rx="0.25" transform="translate(572.13 264.88) rotate(90)"/><rect class="cls-1" x="160.82" y="339.4" width="16.47" height="100.2" rx="0.25" transform="translate(558.56 220.44) rotate(90)"/><rect class="cls-1" x="176.26" y="325.84" width="16.47" height="69.33" rx="0.25" transform="translate(545 176.01) rotate(90)"/><path class="cls-1" d="M243.17,206.76V444.48c-.5,10-13.91,11.26-24.06,11.26,0-.41,0-128.48-.08-128.49-1-39.73-49-59.64-97.22-59.71h-.45c-48.2.07-96.25,20-97.23,59.71-.06,0-.08,128.08-.08,128.49-10.15,0-23.56-1.27-24-11.26V206.76c.13-12,5.73-24.17,14-32.89L80.65,103a25.8,25.8,0,0,0,6.53-16.68V18.49c-1-7.28-15.48-.66-16.68-11.24,0-4,4.78-7.25,10.6-7.25h81c5.82,0,10.6,3.26,10.6,7.25-1.2,10.58-15.72,4-16.68,11.24V86.31A25.8,25.8,0,0,0,162.52,103l66.62,70.88C237.44,182.59,243,194.79,243.17,206.76Z"/></g></g></svg>